    <svg
      width="1441"
      height="192"
      viewBox="0 0 1441 192"
      fill="none"
      xmlns="http://www.w3.org/2000/svg"
    >
      <path
        d="M191.962 87.6162L149.172 164.133L149.409 189.875H192.435L191.962 87.6162ZM0 189.875H43.2623V166.967L0 89.7416V189.875ZM153.427 24.5608L96.6901 119.97L38.5342 24.5608H0L43.2623 104.62L85.579 173.579H106.383L148.936 102.258L190.78 24.5608H153.427Z"
        fill="#9E50DB"
      />
      <path
        d="M266.8 183.498C277.675 189.166 290.205 192 303.916 192C317.628 192 330.157 189.166 341.268 183.498C352.143 177.83 360.89 170.037 367.037 159.882C373.183 149.963 376.256 138.391 376.256 125.638C376.256 112.886 373.183 101.55 367.037 91.631C360.89 81.7121 352.143 73.9188 341.268 68.2509C330.157 62.583 317.628 59.749 303.916 59.749C289.968 59.749 277.439 62.583 266.564 68.2509C255.689 73.9188 246.942 81.7121 240.796 91.631C234.649 101.786 231.576 113.122 231.576 125.638C231.576 138.391 234.649 149.963 240.796 159.882C246.942 170.037 255.689 177.83 266.8 183.498ZM323.301 148.31C318.101 153.742 311.718 156.34 303.916 156.34C295.878 156.34 289.495 153.742 284.531 148.31C279.33 142.878 276.966 135.321 276.966 125.638C276.966 116.192 279.33 108.871 284.531 103.439C289.495 98.2435 295.878 95.4096 303.916 95.4096C311.718 95.4096 318.101 98.2435 323.301 103.439C328.266 108.871 330.866 116.192 330.866 125.638C330.866 135.321 328.266 142.878 323.301 148.31Z"
        fill="#9E50DB"
      />
      <path
        d="M544.775 61.8748H501.986L469.598 140.045L438.865 61.8748H392.766L445.485 189.875H491.82L544.775 61.8748Z"
        fill="#9E50DB"
      />
      <path
        d="M572.573 61.8746V189.875H617.49V61.8746H572.573ZM575.173 40.8561C580.138 45.5794 586.757 47.7048 595.031 47.7048C603.069 47.7048 609.689 45.5794 614.89 40.8561C619.854 36.1329 622.455 30.2288 622.455 23.1439C622.455 16.5314 619.854 10.8635 614.89 6.61255C609.689 2.36162 603.069 0 595.031 0C586.757 0 580.138 2.36163 575.173 6.84872C569.972 11.572 567.608 17.2399 567.608 23.8524C567.608 30.7011 569.972 36.369 575.173 40.8561Z"
        fill="#9E50DB"
      />
      <path
        d="M793.126 137.21C793.599 130.125 793.836 126.583 793.836 126.111C793.836 112.413 790.762 100.605 784.616 90.6863C778.469 80.7675 770.431 72.9741 760.03 67.7786C749.628 62.583 738.044 59.749 725.278 59.749C711.803 59.749 699.746 62.583 689.108 68.2509C678.233 73.9188 669.959 81.9483 663.812 91.8671C657.666 101.786 654.829 113.122 654.829 125.638C654.829 138.391 657.902 149.963 664.049 159.882C670.195 170.037 679.179 177.83 690.526 183.498C701.874 189.166 714.876 192 730.006 192C753.883 192 772.086 185.151 784.616 171.218L760.975 146.657C756.247 150.672 751.755 153.506 747.264 155.159C742.772 157.048 737.571 157.756 731.424 157.756C723.15 157.756 716.294 156.103 710.857 152.561C705.42 149.018 701.874 143.823 699.982 137.21H793.126ZM708.02 97.535C712.748 93.7564 718.422 91.631 725.514 91.631C732.37 91.631 738.044 93.7564 742.772 97.535C747.5 101.55 750.337 106.982 751.755 113.594H699.273C700.455 106.982 703.292 101.55 708.02 97.535Z"
        fill="#9E50DB"
      />
      <path
        d="M864.164 24.5608H815.938L858.018 154.686L881.658 80.5313L864.164 24.5608ZM1043.6 24.5608L1008.84 131.07L989.46 189.875H1034.61L1088.28 24.5608H1043.6ZM975.512 24.5608H932.486L897.498 130.125L879.058 189.875H919.72L952.817 89.2693L970.311 145.004L992.533 79.3505L975.512 24.5608Z"
        fill="#6A1CA7"
      />
      <path
        d="M1122.8 61.8746V189.875H1167.72V61.8746H1122.8ZM1125.4 40.8561C1130.37 45.5794 1136.99 47.7048 1145.26 47.7048C1153.3 47.7048 1159.92 45.5794 1165.12 40.8561C1170.08 36.1329 1172.68 30.2288 1172.68 23.1439C1172.68 16.5314 1170.08 10.8635 1165.12 6.61255C1159.92 2.36162 1153.3 0 1145.26 0C1136.99 0 1130.37 2.36163 1125.4 6.84872C1120.2 11.572 1117.84 17.2399 1117.84 23.8524C1117.84 30.7011 1120.2 36.369 1125.4 40.8561Z"
        fill="#6A1CA7"
      />
      <path
        d="M1271.25 145.004L1307.19 189.875H1361.56L1303.88 116.664L1357.07 61.8747H1303.88L1258.01 106.509V14.6422H1213.1V189.875H1258.01V158.465L1271.25 145.004Z"
        fill="#6A1CA7"
      />
      <path
        d="M1391.12 61.8746V189.875H1436.04V61.8746H1391.12ZM1393.72 40.8561C1398.68 45.5794 1405.3 47.7048 1413.58 47.7048C1421.61 47.7048 1428.23 45.5794 1433.44 40.8561C1438.4 36.1329 1441 30.2288 1441 23.1439C1441 16.5314 1438.4 10.8635 1433.44 6.61255C1428.23 2.36162 1421.61 0 1413.58 0C1405.3 0 1398.68 2.36163 1393.72 6.84872C1388.52 11.572 1386.15 17.2399 1386.15 23.8524C1386.15 30.7011 1388.52 36.369 1393.72 40.8561Z"
        fill="#6A1CA7"
      />
    </svg>
