<svg width="503" height="167" viewBox="0 0 503 167" fill="none" xmlns="http://www.w3.org/2000/svg">
<path d="M191.936 64.1437L149.153 140.552L149.389 166.258H192.409L191.936 64.1437ZM0 166.258H43.2566V143.382L0 66.2662V166.258ZM153.407 1.17737L96.6773 96.4523L38.5291 1.17737H0L43.2566 81.1234L85.5677 149.986H106.369L148.916 78.7651L190.754 1.17737H153.407Z" fill="#9E50DB"/>
<path d="M278.917 0.257751H230.696L272.771 130.2L296.408 56.1493L278.917 0.257751ZM458.325 0.257751L423.578 106.617L404.195 165.338H449.343L503 0.257751H458.325ZM390.249 0.257751H347.229L312.245 105.673L293.808 165.338H334.465L367.557 64.8749L385.049 120.531L407.268 54.9701L390.249 0.257751Z" fill="#6A1CA7"/>
</svg>
